{"title":"Rihanna - Loud - 2010 -FLAC-","uid":5998440,"size":350199298,"categoryP":"audio","categoryS":"flac","magnet":"?xt=urn:btih:c3514212914929fa32030adb3c419aa2f31e921b&amp;dn=Rihanna+-+Loud+-+2010+-FLAC-&amp;tr=udp%3A%2F%2Ftracker.openbittorrent.com%3A80&amp;tr=udp%3A%2F%2Fopen.demonii.com%3A1337&amp;tr=udp%3A%2F%2Ftracker.coppersurfer.tk%3A6969&amp;tr=udp%3A%2F%2Fexodus.desync.com%3A6969","seeders":1,"leechers":1,"uploader":"BoomBox3","files":15,"time":1291110374,"description":"Exact Audio Copy V0.99 prebeta 5 from 4. May 2009\n\nEAC extraction logfile from 9. November 2010, 0:10\n\nRihanna / Loud\n\nUsed drive  : Optiarc DVD RW AD-7243S   Adapter: 2  ID: 0\n\nRead mode               : Secure\nUtilize accurate stream : Yes\nDefeat audio cache      : Yes\nMake use of C2 pointers : No\n\nRead offset correction                      : 48\nOverread into Lead-In and Lead-Out          : No\nFill up missing offset samples with silence : Yes\nDelete leading and trailing silent blocks   : No\nNull samples used in CRC calculations       : Yes\nUsed interface                              : Native Win32 interface for Win NT &amp; 2000\nGap handling                                : Appended to previous track\n\nUsed output format              : User Defined Encoder\nSelected bitrate                : 768 kBit/s\nQuality                         : High\nAdd ID3 tag                     : Yes\nCommand line compressor         : C:\\Program Files\\Exact Audio Copy\\FLAC\\FLAC.EXE\nAdditional command line options : -6 -V -T &quot;ARTIST=%a&quot; -T &quot;TITLE=%t&quot; -T &quot;ALBUM=%g&quot; -T &quot;DATE=%y&quot; -T &quot;TRACKNUMBER=%n&quot; -T &quot;GENRE=%m&quot; -T &quot;COMMENT=%e&quot; %s -o %d\n\n\nTOC of the extracted CD\n\n     Track |   Start  |  Length  | Start sector | End sector \n    ---------------------------------------------------------\n        1  |  0:00.00 |  4:03.40 |         0    |    18264   \n        2  |  4:03.40 |  4:23.13 |     18265    |    38002   \n        3  |  8:26.53 |  4:21.56 |     38003    |    57633   \n        4  | 12:48.34 |  3:19.50 |     57634    |    72608   \n        5  | 16:08.09 |  3:55.37 |     72609    |    90270   \n        6  | 20:03.46 |  4:11.45 |     90271    |   109140   \n        7  | 24:15.16 |  4:27.01 |    109141    |   129166   \n        8  | 28:42.17 |  3:44.62 |    129167    |   146028   \n        9  | 32:27.04 |  4:17.38 |    146029    |   165341   \n       10  | 36:44.42 |  5:03.55 |    165342    |   188121   \n       11  | 41:48.22 |  4:56.16 |    188122    |   210337   \n\n\nTrack  1\n\n     Filename O:\\Rihanna - Loud\\01.S&amp;M.wav\n\n     Pre-gap length  0:00:02.00\n\n     Peak level 99.8 %\n     Track quality 100.0 %\n     Test CRC 58E7BB6A\n     Copy CRC 58E7BB6A\n     Copy OK\n\nTrack  2\n\n     Filename O:\\Rihanna - Loud\\02.What's My Name (feat. Drake).wav\n\n     Peak level 99.8 %\n     Track quality 100.0 %\n     Test CRC 2297F420\n     Copy CRC 2297F420\n     Copy OK\n\nTrack  3\n\n     Filename O:\\Rihanna - Loud\\03.Cheers (Drink To That).wav\n\n     Peak level 99.8 %\n     Track quality 100.0 %\n     Test CRC F241CC00\n     Copy CRC F241CC00\n     Copy OK\n\nTrack  4\n\n     Filename O:\\Rihanna - Loud\\04.Fading.wav\n\n     Peak level 99.8 %\n     Track quality 100.0 %\n     Test CRC 7336D283\n     Copy CRC 7336D283\n     Copy OK\n\nTrack  5\n\n     Filename O:\\Rihanna - Loud\\05.Only Girl (In The World).wav\n\n     Peak level 99.8 %\n     Track quality 100.0 %\n     Test CRC F4D5D099\n     Copy CRC F4D5D099\n     Copy OK\n\nTrack  6\n\n     Filename O:\\Rihanna - Loud\\06.California King Bed.wav\n\n     Peak level 99.8 %\n     Track quality 100.0 %\n     Test CRC C04D9E07\n     Copy CRC C04D9E07\n     Copy OK\n\nTrack  7\n\n     Filename O:\\Rihanna - Loud\\07.Man Down.wav\n\n     Peak level 99.8 %\n     Track quality 100.0 %\n     Test CRC 3211A041\n     Copy CRC 3211A041\n     Copy OK\n\nTrack  8\n\n     Filename O:\\Rihanna - Loud\\08.Raining Men (feat. Nicki Minaj).wav\n\n     Peak level 99.8 %\n     Track quality 99.9 %\n     Test CRC CF44A5F0\n     Copy CRC CF44A5F0\n     Copy OK\n\nTrack  9\n\n     Filename O:\\Rihanna - Loud\\09.Complicated.wav\n\n     Peak level 99.8 %\n     Track quality 100.0 %\n     Test CRC 53757BA0\n     Copy CRC 53757BA0\n     Copy OK\n\nTrack 10\n\n     Filename O:\\Rihanna - Loud\\10.Skin.wav\n\n     Peak level 99.8 %\n     Track quality 100.0 %\n     Test CRC C3F35E86\n     Copy CRC C3F35E86\n     Copy OK\n\nTrack 11\n\n     Filename O:\\Rihanna - Loud\\11.Love The Way You Lie Part II (feat. Eminem).wav\n\n     Peak level 99.8 %\n     Track quality 99.9 %\n     Test CRC 0B2EFF62\n     Copy CRC 0B2EFF62\n     Copy OK\n\nNo errors occurred\n\nEnd of status report\n","torrent":{"xt":"urn:btih:c3514212914929fa32030adb3c419aa2f31e921b","amp;dn":"Rihanna+-+Loud+-+2010+-FLAC-","amp;tr":["udp%3A%2F%2Ftracker.openbittorrent.com%3A80","udp%3A%2F%2Fopen.demonii.com%3A1337","udp%3A%2F%2Ftracker.coppersurfer.tk%3A6969","udp%3A%2F%2Fexodus.desync.com%3A6969"],"infoHash":"c3514212914929fa32030adb3c419aa2f31e921b","infoHashBuffer":{"type":"Buffer","data":[195,81,66,18,145,73,41,250,50,3,10,219,60,65,154,162,243,30,146,27]},"announce":[],"urlList":[]}}